:version 1.10
:name ASF
:units
  mass 1
  length 1
  angle deg
:documentation
  ASF file generated by Kaydara
:root
  axis xyz
  order  tx ty tz rx ry rz
  position 0 0 0
  orientation 0 0 0
:bonedata
  begin
    id 1
    name abdomenDummy
    direction 1 -1.27917e-005 -1.26829e-007
    length 1.79048
    axis 0 0 0 xyz
  end
  begin
    id 2
    name abdomen
    direction 0.987238 0.159249 -9.68575e-008
    length 8.61378
    axis 2.73208e-005 5.54953e-006 9.16328 xyz
    dof rx ry rz
  end
  begin
    id 3
    name chest
    direction 0 0 0
    length 0
    axis 2.65071e-005 8.63688e-006 2.59796 xyz
    dof rx ry rz
  end
  begin
    id 4
    name neckDummyDummy
    direction 0.998972 0.0453274 -1.50742e-007
    length 9.56202
    axis 2.65071e-005 8.63688e-006 2.59796 xyz
  end
  begin
    id 5
    name neckDummy
    direction 0.99977 0.0214525 -1.61748e-007
    length 1.93574
    axis 2.62932e-005 9.26758e-006 1.22924 xyz
    dof rx ry rz
  end
  begin
    id 6
    name neck
    direction 0.99928 -0.0379406 -1.88707e-007
    length 3.70367
    axis 2.56966e-005 1.08122e-005 -2.17436 xyz
    dof rx ry rz
  end
  begin
    id 7
    name head
    direction 0.992648 -0.121037 -2.25408e-007
    length 6.35158
    axis 2.47068e-005 1.29149e-005 -6.95196 xyz
    dof rx ry rz
  end
  begin
    id 8
    name figureHair
    direction -0.86681 -0.498639 -7.83376e-008
    length 8.29884
    axis -2.7515e-005 4.48842e-006 -150.09 xyz
    dof rx ry rz
  end
  begin
    id 9
    name lCollarDummy
    direction 0.994611 0.0451299 -0.0933417
    length 9.60395
    axis 2.65071e-005 8.63688e-006 2.59796 xyz
  end
  begin
    id 10
    name lCollar
    direction 0.0384146 0.00127577 -0.999261
    length 6.95318
    axis 90.4899 87.7973 1.90202 xyz
    dof rx ry rz
  end
  begin
    id 11
    name lShldr
    direction -0.030648 0.0920515 -0.995282
    length 9.61158
    axis -161.793 84.4324 108.415 xyz
    dof rx ry rz
  end
  begin
    id 12
    name lForeArm
    direction 0.000163956 -0.0977586 -0.99521
    length 8.6068
    axis 0.134773 84.3899 -89.8525 xyz
    dof rx ry rz
  end
  begin
    id 13
    name lHand
    direction -0.0190533 -0.1444 -0.989336
    length 7.61479
    axis -7.3729 81.6249 -97.517 xyz
    dof rx ry rz
  end
  begin
    id 14
    name rCollarDummy
    direction 0.994871 0.0442627 0.0909555
    length 9.60761
    axis 2.65071e-005 8.63688e-006 2.59796 xyz
  end
  begin
    id 15
    name rCollar
    direction 0.0334251 -4.74072e-007 0.999441
    length 6.97058
    axis -178.152 -88.0845 -0.000674207 xyz
    dof rx ry rz
  end
  begin
    id 16
    name rShldr
    direction -0.026922 0.0719509 0.997045
    length 9.60913
    axis 71.2822 -85.594 110.514 xyz
    dof rx ry rz
  end
  begin
    id 17
    name rForeArm
    direction 0.00134679 -0.118986 0.992895
    length 8.57176
    axis -88.7923 -83.1659 -89.3516 xyz
    dof rx ry rz
  end
  begin
    id 18
    name rHand
    direction -0.0185183 -0.0768601 0.99687
    length 7.69687
    axis -74.5596 -85.4655 -103.546 xyz
    dof rx ry rz
  end
  begin
    id 19
    name lThighDummy
    direction -0.236086 -0.0385456 -0.970967
    length 4.99155
    axis 0 0 0 xyz
  end
  begin
    id 20
    name lThigh
    direction -0.993968 0.0148998 -0.108653
    length 13.572
    axis -91.4001 6.23768 179.141 xyz
    dof rx ry rz
  end
  begin
    id 21
    name lShin
    direction -0.992341 0.0904576 -0.0841193
    length 18.5862
    axis -91.4558 4.82538 174.792 xyz
    dof rx ry rz
  end
  begin
    id 22
    name lFoot
    direction 0.0209381 -0.999771 -0.00453005
    length 8.44474
    axis 4.86759 0.259522 -88.8001 xyz
    dof rx ry rz
  end
  begin
    id 23
    name rThighDummy
    direction -0.236086 -0.0385456 0.970967
    length 4.99155
    axis 0 0 0 xyz
  end
  begin
    id 24
    name rThigh
    direction -0.993968 0.0148995 0.108653
    length 13.5721
    axis -89.7059 -6.2377 179.141 xyz
    dof rx ry rz
  end
  begin
    id 25
    name rShin
    direction -0.9925 0.0899962 0.0827255
    length 18.6716
    axis -89.2745 -4.74775 174.819 xyz
    dof rx ry rz
  end
  begin
    id 26
    name rFoot
    direction 0.0301721 -0.999545 9.70865e-005
    length 8.45013
    axis -2.50066e-005 -0.00555246 -88.271 xyz
    dof rx ry rz
  end
:hierarchy
  begin
    root abdomenDummy lThighDummy rThighDummy
    abdomenDummy abdomen
    abdomen chest
    chest neckDummyDummy lCollarDummy rCollarDummy
    neckDummyDummy neckDummy
    neckDummy neck
    neck head
    head figureHair
    lCollarDummy lCollar
    lCollar lShldr
    lShldr lForeArm
    lForeArm lHand
    rCollarDummy rCollar
    rCollar rShldr
    rShldr rForeArm
    rForeArm rHand
    lThighDummy lThigh
    lThigh lShin
    lShin lFoot
    rThighDummy rThigh
    rThigh rShin
    rShin rFoot
  end

:SAMPLES-PER-SECOND 25
:FULLY-SPECIFIED
:DEGREES
63
root  32.453 35.9933 13.4285 157.269 2.2332 88.8799
abdomen  0.320388 -4.31425 -11.0154
chest  -0.416642 -5.59817 -6.24381
neckDummy  3.03321e-021 0 6.73878e-016
neck  3.09949 -8.80596 20.9656
head  7.17398 10.7893 -4.09294
figureHair  0 0 -1.04948e-014
lCollar  -3.38943e-016 -6.49156e-016 -7.51406e-014
lShldr  21.2055 11.8829 -76.1027
lForeArm  32.1986 -13.8575 -2.84581
lHand  0.254698 0.195082 5.2986
rCollar  2.67893e-016 -5.20816e-014 1.63997e-015
rShldr  60.4547 18.206 31.0292
rForeArm  -13.0562 -0.292073 93.1189
rHand  -6.92719 -37.0947 24.2012
lThigh  -16.0637 -31.6477 -2.73323
lShin  -2.53219 29.7665 1.81115
lFoot  7.11332 -0.261687 -8.02542
rThigh  8.15819 -2.24012 3.16552
rShin  -5.69256 18.3899 0.824916
rFoot  -8.18619 2.75711 11.0162
64
root  30.3881 35.7639 13.2492 155.172 2.36854 88.8015
abdomen  0.588136 -4.16398 -10.7025
chest  -0.0534425 -4.80105 -6.40115
neckDummy  3.03321e-021 0 6.73878e-016
neck  3.56961 -9.9019 21.3928
head  8.18119 11.4263 -3.84485
figureHair  0 0 -1.04948e-014
lCollar  -3.38943e-016 -6.49156e-016 -7.51406e-014
lShldr  18.8962 14.3721 -75.8004
lForeArm  33.1811 -12.2244 -3.75794
lHand  0.254698 0.195082 5.2986
rCollar  2.67893e-016 -5.20816e-014 1.63997e-015
rShldr  62.0873 14.7755 31.3825
rForeArm  -12.8398 -0.353735 95.9692
rHand  -6.72192 -36.8545 23.7533
lThigh  -16.6099 -27.8993 -2.28358
lShin  -8.12916 14.7662 -2.28353
lFoot  5.9203 -0.463852 -7.45353
rThigh  9.57116 1.09915 1.05184
rShin  -9.99105 18.1013 0.376046
rFoot  -6.26595 2.53665 12.4724
65
root  28.2621 35.4989 13.0239 154.053 2.15692 88.4857
abdomen  0.539285 -3.87526 -10.1551
chest  -0.0250276 -4.56925 -6.9167
neckDummy  3.03321e-021 0 6.73878e-016
neck  3.74969 -11.1922 21.3403
head  8.99281 12.3515 -3.58328
figureHair  0 0 -1.04948e-014
lCollar  -3.38943e-016 -6.49156e-016 -7.51406e-014
lShldr  17.3029 15.9003 -75.5903
lForeArm  35.0703 -10.6117 -4.67093
lHand  0.254698 0.195082 5.2986
rCollar  2.67893e-016 -5.20816e-014 1.63997e-015
rShldr  62.5964 12.7356 30.1605
rForeArm  -12.503 -0.407624 98.4924
rHand  -6.79039 -36.9399 23.9001
lThigh  -6.14076 -24.6991 -2.22772
lShin  -24.5011 4.95483 -8.29188
lFoot  6.60808 -0.313899 -6.07581
rThigh  10.5364 3.96553 -0.526512
rShin  -12.9876 19.4233 -0.612057
rFoot  -4.73364 2.26778 13.1715
66
root  26.1191 35.2206 12.785 153.983 1.89362 88.1084
abdomen  0.252689 -2.71382 -9.58687
chest  -0.377128 -5.62332 -7.13096
neckDummy  3.03321e-021 0 6.73878e-016
neck  3.83711 -12.5704 20.4057
head  9.70276 13.6064 -3.2253
figureHair  0 0 -1.04948e-014
lCollar  -3.38943e-016 -6.49156e-016 -7.51406e-014
lShldr  15.8693 16.666 -75.8712
lForeArm  37.3042 -8.91286 -5.58353
lHand  0.254698 0.195082 5.2986
rCollar  2.67893e-016 -5.20816e-014 1.63997e-015
rShldr  62.0244 11.9917 27.727
rForeArm  -11.9616 -0.456388 100.814
rHand  -6.92596 -37.3369 24.0743
lThigh  -6.62049 -24.3575 -3.76505
lShin  -24.676 5.96668 -8.34954
lFoot  10.3832 -0.690706 -7.257
rThigh  10.4517 5.92218 -1.89379
rShin  -14.7461 22.4247 -1.80585
rFoot  -1.1765 1.43012 13.3165
67
root  23.9543 35.0257 12.5666 154.314 1.76112 87.2441
abdomen  -0.0444431 -0.285522 -10.0037
chest  -1.00863 -8.08006 -6.45174
neckDummy  3.03321e-021 0 6.73878e-016
neck  4.16508 -13.5909 19.2438
head  10.4144 14.3877 -2.90398
figureHair  0 0 -1.04948e-014
lCollar  -3.38943e-016 -6.49156e-016 -7.51406e-014
lShldr  14.7316 16.4459 -76.6871
lForeArm  38.8513 -7.38097 -6.33265
lHand  0.254698 0.195082 5.2986
rCollar  2.67893e-016 -5.20816e-014 1.63997e-015
rShldr  60.4312 12.6906 25.0394
rForeArm  -11.9365 -0.508415 103.331
rHand  -6.74387 -37.2723 23.6048
lThigh  -12.1407 -25.1404 -6.24168
lShin  -16.4673 13.3711 -5.55562
lFoot  15.3775 -0.468318 -9.66591
rThigh  6.7548 4.82761 -3.58025
rShin  -13.8487 30.1643 -2.13455
rFoot  4.94314 -0.343561 9.1662
